# Blender v2.90.1 OBJ File: 'bend_45.blend'
# www.blender.org
mtllib bend_45.mtl
o 45_turn_Circle.010
v 0.000000 0.000000 -12.000000
v -2.341084 0.000000 -11.769423
v -4.592201 0.000000 -11.086554
v -6.666843 0.000000 -9.977635
v -8.485281 0.000000 -8.485281
v -6.640954 6.000000 -9.281749
v -4.351513 6.000000 -10.505480
v -0.435855 6.000000 -11.400000
v -1.867325 6.000000 -11.259049
v 0.000000 0.000000 0.000001
v -7.752821 6.000000 -8.369213
v -0.233770 6.000000 -0.564371
v -8.485281 6.000000 -8.485281
v -6.666843 6.000000 -9.977635
v -4.592201 6.000000 -11.086554
v -2.341084 6.000000 -11.769423
v 0.000000 6.000000 -12.000000
v 0.000000 6.000000 0.000001
v -0.467541 6.000000 -0.467540
v -0.000000 6.000000 -0.661202
v -0.000000 6.000000 -11.400000
v -8.061017 6.000000 -8.061017
v -8.485281 6.600000 -8.485281
v -6.666843 6.600000 -9.977635
v -4.592201 6.600000 -11.086554
v -2.341084 6.600000 -11.769423
v 0.000000 6.600000 -12.000000
v -0.000000 6.600000 -0.661202
v 0.000000 6.600000 0.000001
v -0.467541 6.600000 -0.467540
v -7.752821 6.600000 -8.369213
v -6.640954 6.600000 -9.281749
v -4.351513 6.600000 -10.505480
v -1.867325 6.600000 -11.259049
v -0.435855 6.600000 -11.400000
v -0.233770 6.600000 -0.564371
v -0.000000 6.600000 -11.400000
v -8.061017 6.600000 -8.061017
vt 0.000000 0.000000
vt 0.000000 0.000000
vt 0.000000 0.000000
vt 0.000000 0.000000
vt 0.000000 0.000000
vt 0.000000 0.000000
vt 0.000000 0.000000
vt 0.000000 0.000000
vt 0.000000 0.000000
vt 0.000000 0.000000
vt 0.000000 0.000000
vt 0.000000 0.000000
vt 0.000000 0.000000
vt 0.000000 0.000000
vt 0.000000 0.000000
vt 0.000000 0.000000
vt 0.000000 0.000000
vt 0.000000 0.000000
vt 0.000000 0.000000
vt 0.000000 0.000000
vt 0.000000 0.000000
vt 0.000000 0.000000
vt 0.000000 0.000000
vt 0.000000 0.000000
vt 0.000000 0.000000
vt 0.000000 0.000000
vt 0.000000 0.000000
vt 0.000000 0.000000
vt 0.000000 0.000000
vt 0.000000 0.000000
vt 0.000000 0.000000
vt 0.000000 0.000000
vt 0.000000 0.000000
vt 0.000000 0.000000
vt 0.000000 0.000000
vt 0.000000 0.000000
vt 0.000000 0.000000
vt 0.000000 0.000000
vn 0.0000 -1.0000 0.0000
vn -0.6344 0.0000 -0.7730
vn -0.2903 0.0000 -0.9569
vn 1.0000 0.0000 0.0000
vn -0.4714 0.0000 -0.8819
vn -0.0980 0.0000 -0.9952
vn -0.7071 -0.0000 0.7071
vn 0.6344 0.0000 0.7730
vn -0.3827 0.0000 -0.9239
vn 0.7071 0.0000 0.7071
vn 0.0980 0.0000 0.9952
vn 0.0000 1.0000 0.0000
vn 0.4714 0.0000 0.8819
vn 0.2903 0.0000 0.9569
vn 0.0000 0.0000 1.0000
usemtl None
s off
f 2/1/1 1/2/1 10/3/1 5/4/1 4/5/1 3/6/1
f 4/5/2 5/4/2 13/7/2 14/8/2
f 2/1/3 3/6/3 15/9/3 16/10/3
f 10/3/4 1/2/4 17/11/4 21/12/4 20/13/4 18/14/4
f 3/6/5 4/5/5 14/8/5 15/9/5
f 1/2/6 2/1/6 16/10/6 17/11/6
f 5/4/7 10/3/7 18/14/7 19/15/7 22/16/7 13/7/7
f 11/17/8 6/18/8 32/19/8 31/20/8
f 18/14/4 20/13/4 28/21/4 29/22/4
f 12/23/9 19/15/9 30/24/9 36/25/9
f 22/16/10 11/17/10 31/20/10 38/26/10
f 17/11/6 16/10/6 26/27/6 27/28/6
f 13/7/7 22/16/7 38/26/7 23/29/7
f 9/30/11 8/31/11 35/32/11 34/33/11
f 16/10/3 15/9/3 25/34/3 26/27/3
f 31/20/12 32/19/12 24/35/12 23/29/12
f 32/19/12 33/36/12 25/34/12 24/35/12
f 33/36/12 34/33/12 26/27/12 25/34/12
f 34/33/12 35/32/12 27/28/12 26/27/12
f 35/32/12 37/37/12 27/28/12
f 36/25/12 30/24/12 29/22/12
f 28/21/12 36/25/12 29/22/12
f 38/26/12 31/20/12 23/29/12
f 20/13/9 12/23/9 36/25/9 28/21/9
f 19/15/7 18/14/7 29/22/7 30/24/7
f 14/8/2 13/7/2 23/29/2 24/35/2
f 6/18/13 7/38/13 33/36/13 32/19/13
f 21/12/4 17/11/4 27/28/4 37/37/4
f 15/9/5 14/8/5 24/35/5 25/34/5
f 7/38/14 9/30/14 34/33/14 33/36/14
f 8/31/15 21/12/15 37/37/15 35/32/15
o 45_turn.001_Circle.001
v -6.640954 6.000000 -9.281749
v -4.351513 6.000000 -10.505480
v -0.435855 6.000000 -11.400000
v -1.867325 6.000000 -11.259049
v -7.752821 6.000000 -8.369213
v -0.233770 6.000000 -0.564371
v -0.467541 6.000000 -0.467540
v -0.000000 6.000000 -0.661202
v -0.000000 6.000000 -11.400000
v -8.061017 6.000000 -8.061017
vt 0.000000 0.000000
vt 0.000000 0.000000
vt 0.000000 0.000000
vt 0.000000 0.000000
vt 0.000000 0.000000
vt 0.000000 0.000000
vt 0.000000 0.000000
vt 0.000000 0.000000
vt 0.000000 0.000000
vt 0.000000 0.000000
vn 0.0000 1.0000 0.0000
usemtl None
s off
f 42/39/16 40/40/16 39/41/16 43/42/16 44/43/16 41/44/16
f 45/45/16 44/43/16 43/42/16 48/46/16
f 47/47/16 41/44/16 44/43/16 46/48/16
