# Blender v2.90.1 OBJ File: 'circle finish.blend'
# www.blender.org
mtllib circle finish.mtl
o start/end_Circle
v 0.000000 0.000000 -6.000000
v 0.000001 0.000000 6.000000
v 1.170542 0.000000 5.884712
v 2.296101 0.000000 5.543277
v 3.333422 0.000000 4.988817
v 4.242640 0.000000 4.242641
v 4.988817 0.000000 3.333423
v 5.543277 0.000000 2.296102
v 5.884711 0.000000 1.170542
v 6.000000 0.000000 -0.000000
v 5.884711 0.000000 -1.170542
v 5.543277 0.000000 -2.296102
v 4.988818 0.000000 -3.333420
v 4.242641 0.000000 -4.242640
v 3.333422 0.000000 -4.988818
v 2.296101 0.000000 -5.543277
v 1.170541 0.000000 -5.884712
v 0.000000 0.000000 0.000000
v 1.170541 0.000000 0.000000
v 2.296101 0.000000 0.000000
v 3.333422 0.000000 0.000000
v 4.242641 0.000000 0.000000
v 4.988818 0.000000 0.000001
v 5.543277 0.000000 0.000000
v 0.000001 6.000000 6.000000
v 1.052921 6.000000 5.293394
v 2.065379 6.000000 4.986267
v 2.998467 6.000000 4.487522
v 3.816324 6.000000 3.816324
v 4.487521 6.000000 2.998467
v 4.986267 6.000000 2.065380
v 5.293393 6.000000 1.052922
v 5.397097 6.000000 -0.000000
v 5.293393 6.000000 -1.052922
v 4.986267 6.000000 -2.065381
v 4.487523 6.000000 -2.998466
v 3.816324 6.000000 -3.816324
v 2.998467 6.000000 -4.487522
v 2.065380 6.000000 -4.986267
v 1.052921 6.000000 -5.293394
v -0.029476 6.000000 -5.400000
v 1.170542 6.000000 5.884712
v -0.029476 6.000000 5.400000
v 2.296101 6.000000 5.543277
v 3.333422 6.000000 4.988817
v 4.242640 6.000000 4.242641
v 4.988817 6.000000 3.333423
v 5.543277 6.000000 2.296102
v 5.884711 6.000000 1.170542
v 6.000000 6.000000 -0.000000
v 5.884711 6.000000 -1.170542
v 5.543277 6.000000 -2.296102
v 4.988818 6.000000 -3.333420
v 4.242641 6.000000 -4.242640
v 3.333422 6.000000 -4.988818
v 2.296101 6.000000 -5.543277
v 1.170541 6.000000 -5.884712
v 0.000000 6.000000 -6.000000
v 1.170542 6.600000 5.884712
v 0.000001 6.600000 6.000000
v 2.296101 6.600000 5.543277
v 3.333422 6.600000 4.988817
v 4.242640 6.600000 4.242641
v 4.988817 6.600000 3.333423
v 5.543277 6.600000 2.296102
v 5.884711 6.600000 1.170542
v 6.000000 6.600000 -0.000000
v 5.884711 6.600000 -1.170542
v 5.543277 6.600000 -2.296102
v 4.988818 6.600000 -3.333420
v 4.242641 6.600000 -4.242640
v 3.333422 6.600000 -4.988818
v 2.296101 6.600000 -5.543277
v 1.170541 6.600000 -5.884712
v 0.000000 6.600000 -6.000000
v 1.052921 6.600000 5.293394
v -0.029476 6.600000 5.400000
v 2.065379 6.600000 4.986267
v 2.998467 6.600000 4.487522
v 3.816324 6.600000 3.816324
v 4.487521 6.600000 2.998467
v 4.986267 6.600000 2.065380
v 5.293393 6.600000 1.052922
v 5.397097 6.600000 -0.000000
v 5.293393 6.600000 -1.052922
v 4.986267 6.600000 -2.065381
v 4.487523 6.600000 -2.998466
v 3.816324 6.600000 -3.816324
v 2.998467 6.600000 -4.487522
v 2.065380 6.600000 -4.986267
v 1.052921 6.600000 -5.293394
v -0.029476 6.600000 -5.400000
v 0.000002 0.000000 6.000000
v -0.000002 0.000000 -6.000000
v -1.170543 0.000000 -5.884711
v -2.296103 0.000000 -5.543276
v -3.333423 0.000000 -4.988816
v -4.242642 0.000000 -4.242640
v -4.988818 0.000000 -3.333421
v -5.543278 0.000000 -2.296100
v -5.884712 0.000000 -1.170540
v -6.000000 0.000000 0.000002
v -5.884711 0.000000 1.170544
v -5.543276 0.000000 2.296103
v -4.988817 0.000000 3.333422
v -4.242640 0.000000 4.242642
v -3.333420 0.000000 4.988819
v -2.296099 0.000000 5.543278
v -1.170539 0.000000 5.884712
v -0.000000 0.000000 0.000000
v -1.170541 0.000000 0.000000
v -2.296101 0.000000 0.000001
v -3.333422 0.000000 0.000001
v -4.242641 0.000000 0.000001
v -4.988818 0.000000 0.000001
v -5.543277 0.000000 0.000002
v -0.000002 6.000000 -6.000000
v -1.052923 6.000000 -5.293393
v -2.065381 6.000000 -4.986267
v -2.998468 6.000000 -4.487521
v -3.816325 6.000000 -3.816323
v -4.487522 6.000000 -2.998466
v -4.986268 6.000000 -2.065379
v -5.293394 6.000000 -1.052920
v -5.397097 6.000000 0.000002
v -5.293393 6.000000 1.052923
v -4.986266 6.000000 2.065382
v -4.487522 6.000000 2.998467
v -3.816323 6.000000 3.816325
v -2.998466 6.000000 4.487523
v -2.065378 6.000000 4.986268
v -1.052919 6.000000 5.293394
v 0.029478 6.000000 5.400000
v -1.170543 6.000000 -5.884711
v 0.029474 6.000000 -5.400000
v -2.296103 6.000000 -5.543276
v -3.333423 6.000000 -4.988816
v -4.242642 6.000000 -4.242640
v -4.988818 6.000000 -3.333421
v -5.543278 6.000000 -2.296100
v -5.884712 6.000000 -1.170540
v -6.000000 6.000000 0.000002
v -5.884711 6.000000 1.170544
v -5.543276 6.000000 2.296103
v -4.988817 6.000000 3.333422
v -4.242640 6.000000 4.242642
v -3.333420 6.000000 4.988819
v -2.296099 6.000000 5.543278
v -1.170539 6.000000 5.884712
v 0.000002 6.000000 6.000000
v -1.170543 6.600000 -5.884711
v -0.000002 6.600000 -6.000000
v -2.296103 6.600000 -5.543276
v -3.333423 6.600000 -4.988816
v -4.242642 6.600000 -4.242640
v -4.988818 6.600000 -3.333421
v -5.543278 6.600000 -2.296100
v -5.884712 6.600000 -1.170540
v -6.000000 6.600000 0.000002
v -5.884711 6.600000 1.170544
v -5.543276 6.600000 2.296103
v -4.988817 6.600000 3.333422
v -4.242640 6.600000 4.242642
v -3.333420 6.600000 4.988819
v -2.296099 6.600000 5.543278
v -1.170539 6.600000 5.884712
v 0.000002 6.600000 6.000000
v -1.052923 6.600000 -5.293393
v 0.029474 6.600000 -5.400000
v -2.065381 6.600000 -4.986267
v -2.998468 6.600000 -4.487521
v -3.816325 6.600000 -3.816323
v -4.487522 6.600000 -2.998466
v -4.986268 6.600000 -2.065379
v -5.293394 6.600000 -1.052920
v -5.397097 6.600000 0.000002
v -5.293393 6.600000 1.052923
v -4.986266 6.600000 2.065382
v -4.487522 6.600000 2.998467
v -3.816323 6.600000 3.816325
v -2.998466 6.600000 4.487523
v -2.065378 6.600000 4.986268
v -1.052919 6.600000 5.293394
v 0.029478 6.600000 5.400000
vt 0.000000 0.000000
vt 0.000000 0.000000
vt 0.000000 0.000000
vt 0.000000 0.000000
vt 0.000000 0.000000
vt 0.000000 0.000000
vt 0.000000 0.000000
vt 0.000000 0.000000
vt 0.000000 0.000000
vt 0.000000 0.000000
vt 0.000000 0.000000
vt 0.000000 0.000000
vt 0.000000 0.000000
vt 0.000000 0.000000
vt 0.000000 0.000000
vt 0.000000 0.000000
vt 0.000000 0.000000
vt 0.000000 0.000000
vt 0.000000 0.000000
vt 0.000000 0.000000
vt 0.000000 0.000000
vt 0.000000 0.000000
vt 0.000000 0.000000
vt 0.000000 0.000000
vt 0.000000 0.000000
vt 0.000000 0.000000
vt 0.000000 0.000000
vt 0.000000 0.000000
vt 0.000000 0.000000
vt 0.000000 0.000000
vt 0.000000 0.000000
vt 0.000000 0.000000
vt 0.000000 0.000000
vt 0.000000 0.000000
vt 0.000000 0.000000
vt 0.000000 0.000000
vt 0.000000 0.000000
vt 0.000000 0.000000
vt 0.000000 0.000000
vt 0.000000 0.000000
vt 0.000000 0.000000
vt 0.000000 0.000000
vt 0.000000 0.000000
vt 0.000000 0.000000
vt 0.000000 0.000000
vt 0.000000 0.000000
vt 0.000000 0.000000
vt 0.000000 0.000000
vt 0.000000 0.000000
vt 0.000000 0.000000
vt 0.000000 0.000000
vt 0.000000 0.000000
vt 0.000000 0.000000
vt 0.000000 0.000000
vt 0.000000 0.000000
vt 0.000000 0.000000
vt 0.000000 0.000000
vt 0.000000 0.000000
vt 0.000000 0.000000
vt 0.000000 0.000000
vt 0.000000 0.000000
vt 0.000000 0.000000
vt 0.000000 0.000000
vt 0.000000 0.000000
vt 0.000000 0.000000
vt 0.000000 0.000000
vt 0.000000 0.000000
vt 0.000000 0.000000
vt 0.000000 0.000000
vt 0.000000 0.000000
vt 0.000000 0.000000
vt 0.000000 0.000000
vt 0.000000 0.000000
vt 0.000000 0.000000
vt 0.000000 0.000000
vt 0.000000 0.000000
vt 0.000000 0.000000
vt 0.000000 0.000000
vt 0.000000 0.000000
vt 0.000000 0.000000
vt 0.000000 0.000000
vt 0.000000 0.000000
vt 0.000000 0.000000
vt 0.000000 0.000000
vt 0.000000 0.000000
vt 0.000000 0.000000
vt 0.000000 0.000000
vt 0.000000 0.000000
vt 0.000000 0.000000
vt 0.000000 0.000000
vt 0.000000 0.000000
vt 0.000000 0.000000
vt 0.000000 0.000000
vt 0.000000 0.000000
vt 0.000000 0.000000
vt 0.000000 0.000000
vt 0.000000 0.000000
vt 0.000000 0.000000
vt 0.000000 0.000000
vt 0.000000 0.000000
vt 0.000000 0.000000
vt 0.000000 0.000000
vt 0.000000 0.000000
vt 0.000000 0.000000
vt 0.000000 0.000000
vt 0.000000 0.000000
vt 0.000000 0.000000
vt 0.000000 0.000000
vt 0.000000 0.000000
vt 0.000000 0.000000
vt 0.000000 0.000000
vt 0.000000 0.000000
vt 0.000000 0.000000
vt 0.000000 0.000000
vt 0.000000 0.000000
vt 0.000000 0.000000
vt 0.000000 0.000000
vt 0.000000 0.000000
vt 0.000000 0.000000
vt 0.000000 0.000000
vt 0.000000 0.000000
vt 0.000000 0.000000
vt 0.000000 0.000000
vt 0.000000 0.000000
vt 0.000000 0.000000
vt 0.000000 0.000000
vt 0.000000 0.000000
vt 0.000000 0.000000
vt 0.000000 0.000000
vt 0.000000 0.000000
vt 0.000000 0.000000
vt 0.000000 0.000000
vt 0.000000 0.000000
vt 0.000000 0.000000
vt 0.000000 0.000000
vt 0.000000 0.000000
vt 0.000000 0.000000
vt 0.000000 0.000000
vt 0.000000 0.000000
vt 0.000000 0.000000
vt 0.000000 0.000000
vt 0.000000 0.000000
vt 0.000000 0.000000
vt 0.000000 0.000000
vt 0.000000 0.000000
vt 0.000000 0.000000
vt 0.000000 0.000000
vt 0.000000 0.000000
vt 0.000000 0.000000
vt 0.000000 0.000000
vt 0.000000 0.000000
vt 0.000000 0.000000
vt 0.000000 0.000000
vt 0.000000 0.000000
vt 0.000000 0.000000
vt 0.000000 0.000000
vt 0.000000 0.000000
vt 0.000000 0.000000
vt 0.000000 0.000000
vt 0.000000 0.000000
vt 0.000000 0.000000
vt 0.000000 0.000000
vt 0.000000 0.000000
vt 0.000000 0.000000
vt 0.000000 0.000000
vt 0.000000 0.000000
vt 0.000000 0.000000
vt 0.000000 0.000000
vt 0.000000 0.000000
vt 0.000000 0.000000
vt 0.000000 0.000000
vt 0.000000 0.000000
vt 0.000000 0.000000
vt 0.000000 0.000000
vt 0.000000 0.000000
vt 0.000000 0.000000
vt 0.000000 0.000000
vt 0.000000 0.000000
vt 0.000000 0.000000
vt 0.000000 0.000000
vt 0.000000 0.000000
vt 0.000000 0.000000
vt 0.000000 0.000000
vt 0.000000 0.000000
vn 0.0000 -1.0000 0.0000
vn 0.8819 0.0000 0.4714
vn 0.4714 0.0000 -0.8819
vn 0.9569 0.0000 0.2903
vn 0.2903 0.0000 -0.9569
vn 0.9952 0.0000 0.0980
vn 0.0980 0.0000 0.9952
vn 0.0980 0.0000 -0.9952
vn 0.9952 0.0000 -0.0980
vn 0.2903 0.0000 0.9569
vn 0.9569 0.0000 -0.2903
vn 0.4714 0.0000 0.8819
vn 0.8819 0.0000 -0.4714
vn 0.6344 0.0000 0.7730
vn 0.7730 0.0000 -0.6344
vn 0.7730 0.0000 0.6344
vn 0.6344 0.0000 -0.7730
vn -0.7730 0.0000 -0.6344
vn -0.6344 0.0000 -0.7730
vn -0.4714 0.0000 -0.8819
vn -0.0980 0.0000 0.9952
vn -0.2903 0.0000 -0.9569
vn -0.2903 0.0000 0.9569
vn -0.0980 0.0000 -0.9952
vn -0.4714 0.0000 0.8819
vn -0.6344 0.0000 0.7730
vn 0.0000 1.0000 0.0000
vn -0.8819 0.0000 -0.4714
vn -0.9569 0.0000 -0.2903
vn -0.9952 0.0000 -0.0980
vn -0.9952 0.0000 0.0980
vn -0.9569 0.0000 0.2903
vn -0.8819 0.0000 0.4714
vn -0.7730 0.0000 0.6344
usemtl None
s off
f 18/1/1 1/2/1 17/3/1 19/4/1
f 20/5/1 19/4/1 17/3/1 16/6/1
f 21/7/1 20/5/1 16/6/1 15/8/1
f 22/9/1 21/7/1 15/8/1 14/10/1
f 23/11/1 22/9/1 14/10/1 13/12/1
f 24/13/1 23/11/1 13/12/1 12/14/1
f 10/15/1 24/13/1 12/14/1 11/16/1
f 9/17/1 8/18/1 24/13/1 10/15/1
f 8/18/1 7/19/1 23/11/1 24/13/1
f 7/19/1 6/20/1 22/9/1 23/11/1
f 6/20/1 5/21/1 21/7/1 22/9/1
f 5/21/1 4/22/1 20/5/1 21/7/1
f 4/22/1 3/23/1 19/4/1 20/5/1
f 2/24/1 18/1/1 19/4/1 3/23/1
f 7/19/2 8/18/2 48/25/2 47/26/2
f 15/8/3 16/6/3 56/27/3 55/28/3
f 8/18/4 9/17/4 49/29/4 48/25/4
f 16/6/5 17/3/5 57/30/5 56/27/5
f 9/17/6 10/15/6 50/31/6 49/29/6
f 2/24/7 3/23/7 42/32/7 25/33/7
f 17/3/8 1/2/8 58/34/8 57/30/8
f 10/15/9 11/16/9 51/35/9 50/31/9
f 3/23/10 4/22/10 44/36/10 42/32/10
f 11/16/11 12/14/11 52/37/11 51/35/11
f 4/22/12 5/21/12 45/38/12 44/36/12
f 12/14/13 13/12/13 53/39/13 52/37/13
f 5/21/14 6/20/14 46/40/14 45/38/14
f 13/12/15 14/10/15 54/41/15 53/39/15
f 6/20/16 7/19/16 47/26/16 46/40/16
f 14/10/17 15/8/17 55/28/17 54/41/17
f 30/42/18 29/43/18 80/44/18 81/45/18
f 49/29/6 50/31/6 67/46/6 66/47/6
f 29/43/19 28/48/19 79/49/19 80/44/19
f 48/25/4 49/29/4 66/47/4 65/50/4
f 28/48/20 27/51/20 78/52/20 79/49/20
f 47/26/2 48/25/2 65/50/2 64/53/2
f 41/54/21 40/55/21 91/56/21 92/57/21
f 27/51/22 26/58/22 76/59/22 78/52/22
f 46/40/16 47/26/16 64/53/16 63/60/16
f 40/55/23 39/61/23 90/62/23 91/56/23
f 26/58/24 43/63/24 77/64/24 76/59/24
f 45/38/14 46/40/14 63/60/14 62/65/14
f 39/61/25 38/66/25 89/67/25 90/62/25
f 44/36/12 45/38/12 62/65/12 61/68/12
f 38/66/26 37/69/26 88/70/26 89/67/26
f 76/59/27 77/64/27 60/71/27 59/72/27
f 78/52/27 76/59/27 59/72/27 61/68/27
f 79/49/27 78/52/27 61/68/27 62/65/27
f 80/44/27 79/49/27 62/65/27 63/60/27
f 81/45/27 80/44/27 63/60/27 64/53/27
f 82/73/27 81/45/27 64/53/27 65/50/27
f 83/74/27 82/73/27 65/50/27 66/47/27
f 84/75/27 83/74/27 66/47/27 67/46/27
f 85/76/27 84/75/27 67/46/27 68/77/27
f 86/78/27 85/76/27 68/77/27 69/79/27
f 87/80/27 86/78/27 69/79/27 70/81/27
f 88/70/27 87/80/27 70/81/27 71/82/27
f 89/67/27 88/70/27 71/82/27 72/83/27
f 90/62/27 89/67/27 72/83/27 73/84/27
f 91/56/27 90/62/27 73/84/27 74/85/27
f 92/57/27 91/56/27 74/85/27 75/86/27
f 50/31/9 51/35/9 68/77/9 67/46/9
f 31/87/28 30/42/28 81/45/28 82/73/28
f 51/35/11 52/37/11 69/79/11 68/77/11
f 32/88/29 31/87/29 82/73/29 83/74/29
f 52/37/13 53/39/13 70/81/13 69/79/13
f 33/89/30 32/88/30 83/74/30 84/75/30
f 53/39/15 54/41/15 71/82/15 70/81/15
f 34/90/31 33/89/31 84/75/31 85/76/31
f 54/41/17 55/28/17 72/83/17 71/82/17
f 35/91/32 34/90/32 85/76/32 86/78/32
f 55/28/3 56/27/3 73/84/3 72/83/3
f 36/92/33 35/91/33 86/78/33 87/80/33
f 25/33/7 42/32/7 59/72/7 60/71/7
f 56/27/5 57/30/5 74/85/5 73/84/5
f 37/69/34 36/92/34 87/80/34 88/70/34
f 42/32/10 44/36/10 61/68/10 59/72/10
f 57/30/8 58/34/8 75/86/8 74/85/8
f 110/93/1 93/94/1 109/95/1 111/96/1
f 112/97/1 111/96/1 109/95/1 108/98/1
f 113/99/1 112/97/1 108/98/1 107/100/1
f 114/101/1 113/99/1 107/100/1 106/102/1
f 115/103/1 114/101/1 106/102/1 105/104/1
f 116/105/1 115/103/1 105/104/1 104/106/1
f 102/107/1 116/105/1 104/106/1 103/108/1
f 101/109/1 100/110/1 116/105/1 102/107/1
f 100/110/1 99/111/1 115/103/1 116/105/1
f 99/111/1 98/112/1 114/101/1 115/103/1
f 98/112/1 97/113/1 113/99/1 114/101/1
f 97/113/1 96/114/1 112/97/1 113/99/1
f 96/114/1 95/115/1 111/96/1 112/97/1
f 94/116/1 110/93/1 111/96/1 95/115/1
f 99/111/28 100/110/28 140/117/28 139/118/28
f 107/100/25 108/98/25 148/119/25 147/120/25
f 100/110/29 101/109/29 141/121/29 140/117/29
f 108/98/23 109/95/23 149/122/23 148/119/23
f 101/109/30 102/107/30 142/123/30 141/121/30
f 94/116/24 95/115/24 134/124/24 117/125/24
f 109/95/21 93/94/21 150/126/21 149/122/21
f 102/107/31 103/108/31 143/127/31 142/123/31
f 95/115/22 96/114/22 136/128/22 134/124/22
f 103/108/32 104/106/32 144/129/32 143/127/32
f 96/114/20 97/113/20 137/130/20 136/128/20
f 104/106/33 105/104/33 145/131/33 144/129/33
f 97/113/19 98/112/19 138/132/19 137/130/19
f 105/104/34 106/102/34 146/133/34 145/131/34
f 98/112/18 99/111/18 139/118/18 138/132/18
f 106/102/26 107/100/26 147/120/26 146/133/26
f 122/134/16 121/135/16 172/136/16 173/137/16
f 141/121/30 142/123/30 159/138/30 158/139/30
f 121/135/14 120/140/14 171/141/14 172/136/14
f 140/117/29 141/121/29 158/139/29 157/142/29
f 120/140/12 119/143/12 170/144/12 171/141/12
f 139/118/28 140/117/28 157/142/28 156/145/28
f 133/146/8 132/147/8 183/148/8 184/149/8
f 119/143/10 118/150/10 168/151/10 170/144/10
f 138/132/18 139/118/18 156/145/18 155/152/18
f 132/147/5 131/153/5 182/154/5 183/148/5
f 118/150/7 135/155/7 169/156/7 168/151/7
f 137/130/19 138/132/19 155/152/19 154/157/19
f 131/153/3 130/158/3 181/159/3 182/154/3
f 136/128/20 137/130/20 154/157/20 153/160/20
f 130/158/17 129/161/17 180/162/17 181/159/17
f 168/151/27 169/156/27 152/163/27 151/164/27
f 170/144/27 168/151/27 151/164/27 153/160/27
f 171/141/27 170/144/27 153/160/27 154/157/27
f 172/136/27 171/141/27 154/157/27 155/152/27
f 173/137/27 172/136/27 155/152/27 156/145/27
f 174/165/27 173/137/27 156/145/27 157/142/27
f 175/166/27 174/165/27 157/142/27 158/139/27
f 176/167/27 175/166/27 158/139/27 159/138/27
f 177/168/27 176/167/27 159/138/27 160/169/27
f 178/170/27 177/168/27 160/169/27 161/171/27
f 179/172/27 178/170/27 161/171/27 162/173/27
f 180/162/27 179/172/27 162/173/27 163/174/27
f 181/159/27 180/162/27 163/174/27 164/175/27
f 182/154/27 181/159/27 164/175/27 165/176/27
f 183/148/27 182/154/27 165/176/27 166/177/27
f 184/149/27 183/148/27 166/177/27 167/178/27
f 142/123/31 143/127/31 160/169/31 159/138/31
f 123/179/2 122/134/2 173/137/2 174/165/2
f 143/127/32 144/129/32 161/171/32 160/169/32
f 124/180/4 123/179/4 174/165/4 175/166/4
f 144/129/33 145/131/33 162/173/33 161/171/33
f 125/181/6 124/180/6 175/166/6 176/167/6
f 145/131/34 146/133/34 163/174/34 162/173/34
f 126/182/9 125/181/9 176/167/9 177/168/9
f 146/133/26 147/120/26 164/175/26 163/174/26
f 127/183/11 126/182/11 177/168/11 178/170/11
f 147/120/25 148/119/25 165/176/25 164/175/25
f 128/184/13 127/183/13 178/170/13 179/172/13
f 117/125/24 134/124/24 151/164/24 152/163/24
f 148/119/23 149/122/23 166/177/23 165/176/23
f 129/161/15 128/184/15 179/172/15 180/162/15
f 134/124/22 136/128/22 153/160/22 151/164/22
f 149/122/21 150/126/21 167/178/21 166/177/21
o start/end.001_Circle.003
v 0.000000 6.000000 0.000000
v 1.052921 6.000000 5.293394
v 2.065379 6.000000 4.986267
v 2.998467 6.000000 4.487522
v 3.816324 6.000000 3.816324
v 4.487521 6.000000 2.998467
v 4.986267 6.000000 2.065380
v 5.293393 6.000000 1.052922
v 5.397097 6.000000 -0.000000
v 5.293393 6.000000 -1.052922
v 4.986267 6.000000 -2.065381
v 4.487523 6.000000 -2.998466
v 3.816324 6.000000 -3.816324
v 2.998467 6.000000 -4.487522
v 2.065380 6.000000 -4.986267
v 1.052921 6.000000 -5.293394
v -0.029476 6.000000 -5.400000
v 1.170541 6.000000 0.000000
v 2.296101 6.000000 0.000000
v 3.333422 6.000000 0.000000
v 4.242641 6.000000 0.000000
v 4.988818 6.000000 0.000001
v -0.029476 6.000000 5.400000
v -0.000000 6.000000 0.000000
v -1.052923 6.000000 -5.293393
v -2.065381 6.000000 -4.986267
v -2.998468 6.000000 -4.487521
v -3.816325 6.000000 -3.816323
v -4.487522 6.000000 -2.998466
v -4.986268 6.000000 -2.065379
v -5.293394 6.000000 -1.052920
v -5.397097 6.000000 0.000002
v -5.293393 6.000000 1.052923
v -4.986266 6.000000 2.065382
v -4.487522 6.000000 2.998467
v -3.816323 6.000000 3.816325
v -2.998466 6.000000 4.487523
v -2.065378 6.000000 4.986268
v -1.052919 6.000000 5.293394
v 0.029478 6.000000 5.400000
v -1.170541 6.000000 0.000000
v -2.296101 6.000000 0.000001
v -3.333422 6.000000 0.000001
v -4.242641 6.000000 0.000001
v -4.988818 6.000000 0.000001
v 0.029474 6.000000 -5.400000
vt 0.000000 0.000000
vt 0.000000 0.000000
vt 0.000000 0.000000
vt 0.000000 0.000000
vt 0.000000 0.000000
vt 0.000000 0.000000
vt 0.000000 0.000000
vt 0.000000 0.000000
vt 0.000000 0.000000
vt 0.000000 0.000000
vt 0.000000 0.000000
vt 0.000000 0.000000
vt 0.000000 0.000000
vt 0.000000 0.000000
vt 0.000000 0.000000
vt 0.000000 0.000000
vt 0.000000 0.000000
vt 0.000000 0.000000
vt 0.000000 0.000000
vt 0.000000 0.000000
vt 0.000000 0.000000
vt 0.000000 0.000000
vt 0.000000 0.000000
vt 0.000000 0.000000
vt 0.000000 0.000000
vt 0.000000 0.000000
vt 0.000000 0.000000
vt 0.000000 0.000000
vt 0.000000 0.000000
vt 0.000000 0.000000
vt 0.000000 0.000000
vt 0.000000 0.000000
vt 0.000000 0.000000
vt 0.000000 0.000000
vt 0.000000 0.000000
vt 0.000000 0.000000
vt 0.000000 0.000000
vt 0.000000 0.000000
vt 0.000000 0.000000
vt 0.000000 0.000000
vt 0.000000 0.000000
vt 0.000000 0.000000
vt 0.000000 0.000000
vt 0.000000 0.000000
vt 0.000000 0.000000
vt 0.000000 0.000000
vn 0.0000 1.0000 0.0000
usemtl None
s off
f 185/185/35 202/186/35 200/187/35 201/188/35
f 203/189/35 199/190/35 200/187/35 202/186/35
f 204/191/35 198/192/35 199/190/35 203/189/35
f 205/193/35 197/194/35 198/192/35 204/191/35
f 206/195/35 196/196/35 197/194/35 205/193/35
f 193/197/35 195/198/35 196/196/35 206/195/35
f 193/197/35 194/199/35 195/198/35
f 192/200/35 193/197/35 191/201/35
f 191/201/35 193/197/35 206/195/35 190/202/35
f 190/202/35 206/195/35 205/193/35 189/203/35
f 189/203/35 205/193/35 204/191/35 188/204/35
f 188/204/35 204/191/35 203/189/35 187/205/35
f 187/205/35 203/189/35 202/186/35 186/206/35
f 207/207/35 186/206/35 202/186/35 185/185/35
f 208/208/35 225/209/35 223/210/35 224/211/35
f 226/212/35 222/213/35 223/210/35 225/209/35
f 227/214/35 221/215/35 222/213/35 226/212/35
f 228/216/35 220/217/35 221/215/35 227/214/35
f 229/218/35 219/219/35 220/217/35 228/216/35
f 216/220/35 218/221/35 219/219/35 229/218/35
f 216/220/35 217/222/35 218/221/35
f 215/223/35 216/220/35 214/224/35
f 214/224/35 216/220/35 229/218/35 213/225/35
f 213/225/35 229/218/35 228/216/35 212/226/35
f 212/226/35 228/216/35 227/214/35 211/227/35
f 211/227/35 227/214/35 226/212/35 210/228/35
f 210/228/35 226/212/35 225/209/35 209/229/35
f 230/230/35 209/229/35 225/209/35 208/208/35
