# Blender v2.90.1 OBJ File: 'bend_90.blend'
# www.blender.org
mtllib bend_90.mtl
o 90_turn_Circle.009
v 0.000000 0.000000 -12.000000
v 0.000000 0.000000 -0.000000
v 12.000000 0.000000 -0.000000
v 11.769423 0.000000 -2.341085
v 11.086554 0.000000 -4.592203
v 9.977636 0.000000 -6.666841
v 8.485283 0.000000 -8.485281
v 6.666843 0.000000 -9.977635
v 4.592201 0.000000 -11.086555
v 2.341083 0.000000 -11.769423
v 0.661202 0.000000 -11.400000
v 0.661202 0.000000 -0.661202
v 11.400000 0.000000 -0.661202
v 11.088743 0.000000 -2.040742
v 10.433420 0.000000 -4.201051
v 9.369236 0.000000 -6.191998
v 7.937084 0.000000 -7.937082
v 6.192000 0.000000 -9.369235
v 4.201049 0.000000 -10.433421
v 2.040740 0.000000 -11.088743
v 0.661202 6.000000 -11.400000
v 0.661202 6.000000 -0.661202
v 11.400000 6.000000 -0.661202
v 11.088743 6.000000 -2.040742
v 10.433420 6.000000 -4.201051
v 9.369236 6.000000 -6.191998
v 7.937084 6.000000 -7.937082
v 6.192000 6.000000 -9.369235
v 4.201049 6.000000 -10.433421
v 2.040740 6.000000 -11.088743
v 0.000000 6.000000 -12.000000
v 0.000000 6.000000 -0.000000
v 12.000000 6.000000 -0.000000
v 11.769423 6.000000 -2.341085
v 11.086554 6.000000 -4.592203
v 9.977636 6.000000 -6.666841
v 8.485283 6.000000 -8.485281
v 6.666843 6.000000 -9.977635
v 4.592201 6.000000 -11.086555
v 2.341083 6.000000 -11.769423
v 0.000000 6.000000 -11.400000
v 0.661203 6.000000 -0.000000
v 0.000000 6.000000 -0.661202
v 11.400000 6.000000 -0.000000
v 11.088743 6.600000 -2.040742
v 11.400000 6.600000 -0.661202
v 10.433420 6.600000 -4.201051
v 9.369236 6.600000 -6.191998
v 7.937084 6.600000 -7.937082
v 6.192000 6.600000 -9.369235
v 4.201049 6.600000 -10.433421
v 2.040740 6.600000 -11.088743
v 0.661202 6.600000 -11.400000
v 0.000000 6.600000 -0.661202
v 0.000000 6.600000 -0.000000
v 0.661203 6.600000 -0.000000
v 11.769423 6.600000 -2.341085
v 12.000000 6.600000 -0.000000
v 11.086554 6.600000 -4.592203
v 9.977636 6.600000 -6.666841
v 8.485283 6.600000 -8.485281
v 6.666843 6.600000 -9.977635
v 4.592201 6.600000 -11.086555
v 2.341083 6.600000 -11.769423
v 0.000000 6.600000 -12.000000
v 0.661202 6.600000 -0.661202
v 0.000000 6.600000 -11.400000
v 11.400000 6.600000 -0.000000
vt 0.000000 0.000000
vt 0.000000 0.000000
vt 0.000000 0.000000
vt 0.000000 0.000000
vt 0.000000 0.000000
vt 0.000000 0.000000
vt 0.000000 0.000000
vt 0.000000 0.000000
vt 0.000000 0.000000
vt 0.000000 0.000000
vt 0.000000 0.000000
vt 0.000000 0.000000
vt 0.000000 0.000000
vt 0.000000 0.000000
vt 0.000000 0.000000
vt 0.000000 0.000000
vt 0.000000 0.000000
vt 0.000000 0.000000
vt 0.000000 0.000000
vt 0.000000 0.000000
vt 0.000000 0.000000
vt 0.000000 0.000000
vt 0.000000 0.000000
vt 0.000000 0.000000
vt 0.000000 0.000000
vt 0.000000 0.000000
vt 0.000000 0.000000
vt 0.000000 0.000000
vt 0.000000 0.000000
vt 0.000000 0.000000
vt 0.000000 0.000000
vt 0.000000 0.000000
vt 0.000000 0.000000
vt 0.000000 0.000000
vt 0.000000 0.000000
vt 0.000000 0.000000
vt 0.000000 0.000000
vt 0.000000 0.000000
vt 0.000000 0.000000
vt 0.000000 0.000000
vt 0.000000 0.000000
vt 0.000000 0.000000
vt 0.000000 0.000000
vt 0.000000 0.000000
vt 0.000000 0.000000
vt 0.000000 0.000000
vt 0.000000 0.000000
vt 0.000000 0.000000
vt 0.000000 0.000000
vt 0.000000 0.000000
vt 0.000000 0.000000
vt 0.000000 0.000000
vt 0.000000 0.000000
vt 0.000000 0.000000
vt 0.000000 0.000000
vt 0.000000 0.000000
vt 0.000000 0.000000
vt 0.000000 0.000000
vt 0.000000 0.000000
vt 0.000000 0.000000
vt 0.000000 0.000000
vt 0.000000 0.000000
vt 0.000000 0.000000
vt 0.000000 0.000000
vt 0.000000 0.000000
vt 0.000000 0.000000
vt 0.000000 0.000000
vt 0.000000 0.000000
vn 0.0000 -1.0000 0.0000
vn -0.7730 0.0000 0.6344
vn 0.9952 0.0000 -0.0980
vn 0.0980 0.0000 -0.9952
vn -0.8819 0.0000 0.4714
vn 0.0000 0.0000 1.0000
vn 0.2903 0.0000 -0.9569
vn -0.9569 0.0000 0.2903
vn -1.0000 0.0000 0.0000
vn 0.6344 0.0000 -0.7730
vn 0.9569 0.0000 -0.2903
vn 0.4714 0.0000 -0.8819
vn 0.8819 0.0000 -0.4714
vn 0.7730 0.0000 -0.6344
vn 0.0000 1.0000 0.0000
vn -0.6344 0.0000 0.7730
vn -0.0000 0.0000 -1.0000
vn -0.4714 0.0000 0.8819
vn 1.0000 0.0000 -0.0000
vn -0.2903 0.0000 0.9569
vn -0.2201 0.0000 0.9755
vn -0.9755 0.0000 0.2201
usemtl None
s off
f 12/1/1 11/2/1 20/3/1 19/4/1 18/5/1 17/6/1 16/7/1 15/8/1 14/9/1 13/10/1
f 12/1/1 2/11/1 1/12/1 11/2/1
f 13/10/1 3/13/1 2/11/1 12/1/1
f 14/9/1 4/14/1 3/13/1 13/10/1
f 15/8/1 5/15/1 4/14/1 14/9/1
f 16/7/1 6/16/1 5/15/1 15/8/1
f 17/6/1 7/17/1 6/16/1 16/7/1
f 18/5/1 8/18/1 7/17/1 17/6/1
f 19/4/1 9/19/1 8/18/1 18/5/1
f 20/3/1 10/20/1 9/19/1 19/4/1
f 11/2/1 1/12/1 10/20/1 20/3/1
f 27/21/2 26/22/2 48/23/2 49/24/2
f 33/25/3 34/26/3 57/27/3 58/28/3
f 40/29/4 31/30/4 65/31/4 64/32/4
f 26/22/5 25/33/5 47/34/5 48/23/5
f 41/35/6 21/36/6 53/37/6 67/38/6
f 32/39/6 42/40/6 56/41/6 55/42/6
f 39/43/7 40/29/7 64/32/7 63/44/7
f 25/33/8 24/45/8 45/46/8 47/34/8
f 31/30/9 41/35/9 67/38/9 65/31/9
f 43/47/9 32/39/9 55/42/9 54/48/9
f 10/20/4 1/12/4 31/30/4 40/29/4
f 7/17/10 8/18/10 38/49/10 37/50/10
f 4/14/11 5/15/11 35/51/11 34/26/11
f 1/12/9 2/11/9 32/39/9 43/47/9 41/35/9 31/30/9
f 8/18/12 9/19/12 39/43/12 38/49/12
f 5/15/13 6/16/13 36/52/13 35/51/13
f 2/11/6 3/13/6 33/25/6 44/53/6 42/40/6 32/39/6
f 9/19/7 10/20/7 40/29/7 39/43/7
f 6/16/14 7/17/14 37/50/14 36/52/14
f 3/13/3 4/14/3 34/26/3 33/25/3
f 23/54/9 44/53/9 68/55/9 46/56/9
f 38/49/12 39/43/12 63/44/12 62/57/12
f 66/58/15 54/48/15 55/42/15
f 46/56/15 68/55/15 58/28/15
f 45/46/15 46/56/15 58/28/15 57/27/15
f 47/34/15 45/46/15 57/27/15 59/59/15
f 48/23/15 47/34/15 59/59/15 60/60/15
f 49/24/15 48/23/15 60/60/15 61/61/15
f 50/62/15 49/24/15 61/61/15 62/57/15
f 51/63/15 50/62/15 62/57/15 63/44/15
f 52/64/15 51/63/15 63/44/15 64/32/15
f 53/37/15 52/64/15 64/32/15 65/31/15
f 67/38/15 53/37/15 65/31/15
f 56/41/15 66/58/15 55/42/15
f 34/26/11 35/51/11 59/59/11 57/27/11
f 28/65/16 27/21/16 49/24/16 50/62/16
f 35/51/13 36/52/13 60/60/13 59/59/13
f 22/66/17 43/47/17 54/48/17 66/58/17
f 29/67/18 28/65/18 50/62/18 51/63/18
f 36/52/14 37/50/14 61/61/14 60/60/14
f 42/40/19 22/66/19 66/58/19 56/41/19
f 30/68/20 29/67/20 51/63/20 52/64/20
f 37/50/10 38/49/10 62/57/10 61/61/10
f 44/53/6 33/25/6 58/28/6 68/55/6
f 21/36/21 30/68/21 52/64/21 53/37/21
f 24/45/22 23/54/22 46/56/22 45/46/22
o 90_turn.001_Circle.001
v 0.661202 6.000000 -11.400000
v 0.661202 6.000000 -0.661202
v 11.400000 6.000000 -0.661202
v 11.088743 6.000000 -2.040742
v 10.433420 6.000000 -4.201051
v 9.369236 6.000000 -6.191998
v 7.937084 6.000000 -7.937082
v 6.192000 6.000000 -9.369235
v 4.201049 6.000000 -10.433421
v 2.040740 6.000000 -11.088743
v 0.000000 6.000000 -11.400000
v 0.661203 6.000000 -0.000000
v 0.000000 6.000000 -0.661202
v 11.400000 6.000000 -0.000000
vt 0.000000 0.000000
vt 0.000000 0.000000
vt 0.000000 0.000000
vt 0.000000 0.000000
vt 0.000000 0.000000
vt 0.000000 0.000000
vt 0.000000 0.000000
vt 0.000000 0.000000
vt 0.000000 0.000000
vt 0.000000 0.000000
vt 0.000000 0.000000
vt 0.000000 0.000000
vt 0.000000 0.000000
vt 0.000000 0.000000
vn 0.0000 1.0000 0.0000
usemtl None
s off
f 70/69/23 71/70/23 72/71/23 73/72/23 74/73/23 75/74/23 76/75/23 77/76/23 78/77/23 69/78/23
f 81/79/23 70/69/23 69/78/23 79/80/23
f 82/81/23 71/70/23 70/69/23 80/82/23
