# Blender v2.90.1 OBJ File: 'cross_X.blend'
# www.blender.org
mtllib cross_X.mtl
o x_Cross_Plane.003
v -6.000000 0.000000 6.000000
v 6.000000 0.000000 6.000000
v -6.000000 0.000000 -6.000000
v 6.000000 0.000000 -6.000000
v -5.400000 6.000000 -5.400000
v -5.400000 6.000000 5.400000
v 5.400000 6.000000 5.400000
v 5.400000 6.000000 -5.400000
v -6.000000 6.000000 -6.000000
v -6.000000 6.000000 6.000000
v 6.000000 6.000000 6.000000
v 6.000000 6.000000 -6.000000
v -5.400000 6.000000 6.000000
v -6.000000 6.000000 5.400000
v -6.000000 6.000000 -5.400000
v -5.399999 6.000000 -6.000000
v 6.000000 6.000000 -5.400000
v 5.400000 6.000000 -6.000000
v 5.400000 6.000000 6.000000
v 6.000000 6.000000 5.400000
v -6.000000 6.600000 5.400000
v -6.000000 6.600000 6.000000
v 5.400000 6.600000 6.000000
v 6.000000 6.600000 6.000000
v 6.000000 6.600000 -5.400000
v 6.000000 6.600000 -6.000000
v -5.399999 6.600000 -6.000000
v -6.000000 6.600000 -6.000000
v -5.400000 6.600000 5.400000
v -5.400000 6.600000 -5.400000
v 5.400000 6.600000 5.400000
v 5.400000 6.600000 -5.400000
v -5.400000 6.600000 6.000000
v -6.000000 6.600000 -5.400000
v 5.400000 6.600000 -6.000000
v 6.000000 6.600000 5.400000
vt 0.000000 0.000000
vt 0.000000 1.000000
vt 1.000000 1.000000
vt 1.000000 0.000000
vt 1.000000 1.000000
vt 1.000000 0.922086
vt 1.000000 0.085049
vt 1.000000 0.000000
vt 0.000000 0.000000
vt 0.000000 0.068441
vt 0.000000 0.870979
vt 0.000000 1.000000
vt 0.090389 1.000000
vt 0.947109 1.000000
vt 0.945882 0.000000
vt 0.086582 0.000000
vt 1.000000 0.000000
vt 0.945882 0.000000
vt 0.050000 0.950000
vt 0.090389 1.000000
vt 0.050000 0.950000
vt 0.950000 0.050000
vt 0.950000 0.050000
vt 1.000000 0.085049
vt 0.000000 0.000000
vt 0.000000 0.068441
vt 0.000000 0.870979
vt 0.000000 1.000000
vt 0.950000 0.950000
vt 0.950000 0.950000
vt 0.947109 1.000000
vt 0.050000 0.050000
vt 0.086582 0.000000
vt 1.000000 0.922086
vt 1.000000 1.000000
vt 0.050000 0.050000
vn 0.0000 -1.0000 0.0000
vn 1.0000 -0.0000 0.0000
vn -1.0000 -0.0000 0.0000
vn 0.0000 0.0000 -1.0000
vn 0.0000 0.0000 1.0000
vn 0.0000 1.0000 0.0000
usemtl None
s off
f 1/1/1 3/2/1 4/3/1 2/4/1
f 2/4/2 4/3/2 12/5/2 17/6/2 20/7/2 11/8/2
f 3/2/3 1/1/3 10/9/3 14/10/3 15/11/3 9/12/3
f 4/3/4 3/2/4 9/12/4 16/13/4 18/14/4 12/5/4
f 1/1/5 2/4/5 11/8/5 19/15/5 13/16/5 10/9/5
f 19/15/5 11/8/5 24/17/5 23/18/5
f 5/19/2 16/13/2 27/20/2 30/21/2
f 20/7/4 7/22/4 31/23/4 36/24/4
f 14/10/3 10/9/3 22/25/3 21/26/3
f 15/11/5 5/19/5 30/21/5 34/27/5
f 11/8/2 20/7/2 36/24/2 24/17/2
f 9/12/3 15/11/3 34/27/3 28/28/3
f 18/14/3 8/29/3 32/30/3 35/31/3
f 29/32/6 21/26/6 22/25/6
f 33/33/6 29/32/6 22/25/6
f 34/27/6 30/21/6 28/28/6
f 27/20/6 28/28/6 30/21/6
f 25/34/6 26/35/6 32/30/6
f 35/31/6 32/30/6 26/35/6
f 36/24/6 31/23/6 24/17/6
f 23/18/6 24/17/6 31/23/6
f 10/9/5 13/16/5 33/33/5 22/25/5
f 7/22/3 19/15/3 23/18/3 31/23/3
f 17/6/2 12/5/2 26/35/2 25/34/2
f 12/5/4 18/14/4 35/31/4 26/35/4
f 16/13/4 9/12/4 28/28/4 27/20/4
f 6/36/4 14/10/4 21/26/4 29/32/4
f 8/29/5 17/6/5 25/34/5 32/30/5
f 13/16/2 6/36/2 29/32/2 33/33/2
o x_Cross.001_Plane.001
v -5.400000 6.000000 -5.400000
v -5.400000 6.000000 5.400000
v 5.400000 6.000000 5.400000
v 5.400000 6.000000 -5.400000
v -5.400000 6.000000 6.000000
v -6.000000 6.000000 5.400000
v -6.000000 6.000000 -5.400000
v -5.399999 6.000000 -6.000000
v 6.000000 6.000000 -5.400000
v 5.400000 6.000000 -6.000000
v 5.400000 6.000000 6.000000
v 6.000000 6.000000 5.400000
vt 0.050000 0.050000
vt 0.950000 0.050000
vt 0.950000 0.950000
vt 0.050000 0.950000
vt 0.086582 0.000000
vt 0.945882 0.000000
vt 1.000000 0.085049
vt 1.000000 0.922086
vt 0.947109 1.000000
vt 0.090389 1.000000
vt 0.000000 0.068441
vt 0.000000 0.870979
vn 0.0000 1.0000 0.0000
usemtl None
s off
f 38/37/7 39/38/7 40/39/7 37/40/7
f 39/38/7 38/37/7 41/41/7 47/42/7
f 40/39/7 39/38/7 48/43/7 45/44/7
f 37/40/7 40/39/7 46/45/7 44/46/7
f 42/47/7 38/37/7 37/40/7 43/48/7
