# Blender v2.90.1 OBJ File: 'line_long.blend'
# www.blender.org
mtllib line_long.mtl
o line_long_Plane.021
v -6.000000 0.000000 6.000000
v 6.000000 0.000000 6.000000
v -6.000000 0.000000 -6.000000
v 6.000000 0.000000 -6.000000
v -6.000000 6.000000 -6.000000
v -6.000000 6.000000 6.000000
v 6.000000 6.000000 6.000000
v 6.000000 6.000000 -6.000000
v -6.000000 6.000000 -5.400000
v 6.000000 6.000000 -5.400000
v 6.000000 6.000000 5.400000
v -6.000000 6.000000 5.400000
v -6.000000 6.600000 5.400000
v -6.000000 6.600000 6.000000
v 6.000000 6.600000 6.000000
v 6.000000 6.600000 -5.400000
v 6.000000 6.600000 -6.000000
v -6.000000 6.600000 -6.000000
v -6.000000 6.600000 -5.400000
v 6.000000 6.600000 5.400000
vt 0.000000 0.000000
vt 0.000000 1.000000
vt 1.000000 1.000000
vt 1.000000 0.000000
vt 0.000000 1.000000
vt 1.000000 1.000000
vt 1.000000 0.000000
vt 0.000000 0.000000
vt 1.000000 0.929310
vt 1.000000 0.072138
vt 0.000000 0.061469
vt 0.000000 0.940087
vt 1.000000 0.929310
vt 1.000000 1.000000
vt 0.000000 1.000000
vt 0.000000 0.940087
vt 0.000000 0.000000
vt 0.000000 0.061469
vt 1.000000 0.072138
vt 1.000000 0.000000
vn 0.0000 -1.0000 0.0000
vn 0.0000 0.0000 -1.0000
vn 0.0000 0.0000 1.0000
vn 1.0000 -0.0000 0.0000
vn -1.0000 -0.0000 0.0000
vn 0.0000 1.0000 0.0000
usemtl None
s off
f 1/1/1 3/2/1 4/3/1 2/4/1
f 4/3/2 3/2/2 5/5/2 8/6/2
f 1/1/3 2/4/3 7/7/3 6/8/3
f 2/4/4 4/3/4 8/6/4 10/9/4 11/10/4 7/7/4
f 3/2/5 1/1/5 6/8/5 12/11/5 9/12/5 5/5/5
f 16/13/6 17/14/6 18/15/6 19/16/6
f 12/11/5 6/8/5 14/17/5 13/18/5
f 8/6/2 5/5/2 18/15/2 17/14/2
f 7/7/4 11/10/4 20/19/4 15/20/4
f 6/8/3 7/7/3 15/20/3 14/17/3
f 10/9/4 8/6/4 17/14/4 16/13/4
f 11/10/2 12/11/2 13/18/2 20/19/2
f 13/18/6 14/17/6 15/20/6 20/19/6
f 5/5/5 9/12/5 19/16/5 18/15/5
f 16/13/3 19/16/3 9/12/3 10/9/3
o line_long.001_Plane.001
v -6.000000 6.000000 -5.400000
v 6.000000 6.000000 -5.400000
v 6.000000 6.000000 5.400000
v -6.000000 6.000000 5.400000
vt 1.000000 0.072138
vt 1.000000 0.929310
vt 0.000000 0.940087
vt 0.000000 0.061469
vn 0.0000 1.0000 0.0000
usemtl None
s off
f 23/21/7 22/22/7 21/23/7 24/24/7
