# Blender v2.90.1 OBJ File: 'ramp_45.blend'
# www.blender.org
mtllib ramp_45.mtl
o 45_ramp_Plane.013
v -0.967028 0.000000 6.000000
v 0.967024 0.000000 6.000000
v -0.967028 0.000000 -6.000000
v 0.967024 0.000000 -6.000000
v -0.542764 7.509788 -5.400000
v -0.542764 7.509788 5.400000
v 0.542760 6.424264 5.400000
v 0.542760 6.424264 -5.400000
v -0.967028 7.934052 -6.000000
v -0.967028 7.934052 6.000000
v 0.967024 6.000000 6.000000
v 0.967024 6.000000 -6.000000
v -0.967028 7.934052 5.400000
v 0.967024 6.000000 5.400000
v 0.967024 6.000000 -5.400000
v -0.967028 7.934052 -5.400000
v -0.967028 8.534052 5.400000
v -0.967028 8.534052 6.000000
v 0.967025 6.599999 6.000000
v 0.967025 6.599999 -5.400000
v 0.967025 6.599999 -6.000000
v -0.967028 8.534052 -6.000000
v -0.542764 8.109788 5.400000
v 0.542760 7.024263 5.400000
v 0.542760 7.024263 -5.400000
v -0.542764 8.109788 -5.400000
v 0.967025 6.599999 5.400000
v -0.967028 8.534052 -5.400000
vt 0.000000 0.000000
vt 0.000000 1.000000
vt 1.000000 1.000000
vt 1.000000 0.000000
vt 0.000000 1.000000
vt 1.000000 1.000000
vt 1.000000 0.000000
vt 0.000000 0.000000
vt 1.000000 0.912087
vt 1.000000 0.057847
vt 0.000000 0.044879
vt 0.000000 0.909692
vt 1.000000 0.000000
vt 0.000000 0.000000
vt 0.000000 0.909692
vt 0.000000 1.000000
vt 0.000000 0.044879
vt 1.000000 0.057847
vt 0.780635 0.050000
vt 0.219365 0.050000
vt 1.000000 0.912087
vt 1.000000 1.000000
vt 0.219365 0.950000
vt 0.780635 0.950000
vt 0.780635 0.050000
vt 0.219365 0.950000
vt 0.219365 0.050000
vt 0.780635 0.950000
vn -0.0000 -1.0000 0.0000
vn 0.0000 0.0000 -1.0000
vn 0.0000 0.0000 1.0000
vn 1.0000 0.0000 0.0000
vn -1.0000 -0.0000 0.0000
vn 0.7071 0.7071 0.0000
usemtl None
s off
f 1/1/1 3/2/1 4/3/1 2/4/1
f 4/3/2 3/2/2 9/5/2 12/6/2
f 1/1/3 2/4/3 11/7/3 10/8/3
f 2/4/4 4/3/4 12/6/4 15/9/4 14/10/4 11/7/4
f 3/2/5 1/1/5 10/8/5 13/11/5 16/12/5 9/5/5
f 10/8/3 11/7/3 19/13/3 18/14/3
f 9/5/5 16/12/5 28/15/5 22/16/5
f 17/17/6 18/14/6 19/13/6 27/18/6 24/19/6 23/20/6
f 20/21/6 21/22/6 22/16/6 28/15/6 26/23/6 25/24/6
f 14/10/2 7/25/2 24/19/2 27/18/2
f 16/12/3 5/26/3 26/23/3 28/15/3
f 15/9/4 12/6/4 21/22/4 20/21/4
f 7/25/2 6/27/2 23/20/2 24/19/2
f 6/27/2 13/11/2 17/17/2 23/20/2
f 12/6/2 9/5/2 22/16/2 21/22/2
f 8/28/3 15/9/3 20/21/3 25/24/3
f 13/11/5 10/8/5 18/14/5 17/17/5
f 11/7/4 14/10/4 27/18/4 19/13/4
f 5/26/3 8/28/3 25/24/3 26/23/3
o 45_ramp.001_Plane.001
v -0.542764 7.509788 -5.400000
v -0.542764 7.509788 5.400000
v 0.542760 6.424264 5.400000
v 0.542760 6.424264 -5.400000
v -0.967028 7.934052 5.400000
v 0.967024 6.000000 5.400000
v 0.967024 6.000000 -5.400000
v -0.967028 7.934052 -5.400000
vt 0.219365 0.050000
vt 0.780635 0.050000
vt 0.780635 0.950000
vt 0.219365 0.950000
vt 0.000000 0.044879
vt 0.000000 0.909692
vt 1.000000 0.912087
vt 1.000000 0.057847
vn 0.7071 0.7071 0.0000
usemtl None
s off
f 30/29/7 31/30/7 32/31/7 29/32/7
f 33/33/7 30/29/7 29/32/7 36/34/7
f 35/35/7 32/31/7 31/30/7 34/36/7
