# Blender v2.90.1 OBJ File: 'ramp_22 5 .blend'
# www.blender.org
mtllib ramp_22 5 .mtl
o 22.5_ramp_Plane.012
v -1.263481 0.000000 6.000000
v 1.263480 0.000000 6.000000
v -1.263481 0.000000 -6.000000
v 1.263480 0.000000 -6.000000
v -0.709154 6.817091 -5.400000
v -0.709154 6.817091 5.400000
v 0.709152 6.229609 5.400000
v 0.709152 6.229609 -5.400000
v -1.263481 7.046700 -6.000000
v -1.263481 7.046700 6.000000
v 1.263480 5.999999 6.000000
v 1.263480 5.999999 -6.000000
v -1.263481 7.046700 -5.400000
v 1.263480 5.999999 -5.400000
v -1.263481 7.046700 5.400000
v 1.263480 5.999999 5.400000
v -1.263481 7.646700 5.400000
v -1.263481 7.646700 6.000000
v 1.263480 6.599999 6.000000
v 1.263480 6.599999 -5.400000
v 1.263480 6.599999 -6.000000
v -1.263481 7.646700 -6.000000
v -0.709154 7.417090 5.400000
v 0.709152 6.829609 5.400000
v 0.709152 6.829609 -5.400000
v -0.709154 7.417090 -5.400000
v -1.263481 7.646700 -5.400000
v 1.263480 6.599999 5.400000
vt 0.000000 0.000000
vt 0.000000 1.000000
vt 1.000000 1.000000
vt 1.000000 0.000000
vt 1.000000 1.000000
vt 1.000000 0.941194
vt 1.000000 0.054825
vt 1.000000 0.000000
vt 0.000000 0.000000
vt 0.000000 0.057153
vt 0.000000 0.923111
vt 0.000000 1.000000
vt 0.219365 0.950000
vt 0.219365 0.950000
vt 0.000000 0.923111
vt 0.780635 0.050000
vt 0.219365 0.050000
vt 0.219365 0.050000
vt 0.780635 0.050000
vt 0.000000 0.057153
vt 0.000000 0.000000
vt 1.000000 0.000000
vt 1.000000 0.054825
vt 1.000000 0.941194
vt 1.000000 1.000000
vt 0.000000 1.000000
vt 0.780635 0.950000
vt 0.780635 0.950000
vn -0.0000 -1.0000 0.0000
vn 1.0000 0.0000 0.0000
vn -1.0000 -0.0000 0.0000
vn 0.0000 0.0000 -1.0000
vn 0.0000 0.0000 1.0000
vn 0.3827 0.9239 0.0000
usemtl None
s off
f 1/1/1 3/2/1 4/3/1 2/4/1
f 2/4/2 4/3/2 12/5/2 14/6/2 16/7/2 11/8/2
f 3/2/3 1/1/3 10/9/3 15/10/3 13/11/3 9/12/3
f 4/3/4 3/2/4 9/12/4 12/5/4
f 1/1/5 2/4/5 11/8/5 10/9/5
f 13/11/5 5/13/5 26/14/5 27/15/5
f 7/16/4 6/17/4 23/18/4 24/19/4
f 17/20/6 18/21/6 19/22/6 28/23/6 24/19/6 23/18/6
f 20/24/6 21/25/6 22/26/6 27/15/6 26/14/6 25/27/6
f 12/5/4 9/12/4 22/26/4 21/25/4
f 6/17/4 15/10/4 17/20/4 23/18/4
f 15/10/3 10/9/3 18/21/3 17/20/3
f 5/13/5 8/28/5 25/27/5 26/14/5
f 11/8/2 16/7/2 28/23/2 19/22/2
f 10/9/5 11/8/5 19/22/5 18/21/5
f 8/28/5 14/6/5 20/24/5 25/27/5
f 9/12/3 13/11/3 27/15/3 22/26/3
f 16/7/4 7/16/4 24/19/4 28/23/4
f 14/6/2 12/5/2 21/25/2 20/24/2
o 22.5_ramp.001_Plane.001
v -0.709154 6.817091 -5.400000
v -0.709154 6.817091 5.400000
v 0.709152 6.229609 5.400000
v 0.709152 6.229609 -5.400000
v -1.263481 7.046700 -5.400000
v 1.263480 5.999999 -5.400000
v -1.263481 7.046700 5.400000
v 1.263480 5.999999 5.400000
vt 0.219365 0.050000
vt 0.780635 0.050000
vt 0.780635 0.950000
vt 0.219365 0.950000
vt 1.000000 0.941194
vt 1.000000 0.054825
vt 0.000000 0.057153
vt 0.000000 0.923111
vn 0.3827 0.9239 0.0000
usemtl None
s off
f 30/29/7 31/30/7 32/31/7 29/32/7
f 34/33/7 32/31/7 31/30/7 36/34/7
f 35/35/7 30/29/7 29/32/7 33/36/7
